<svg id="visual" viewBox="0 0 960 250" width="960" height="250" xmlns="http://www.w3.org/2000/svg" xmlns:xlink="http://www.w3.org/1999/xlink" version="1.1"><path d="M0 24L16 24C32 24 64 24 96 24.8C128 25.7 160 27.3 192 26C224 24.7 256 20.3 288 20.3C320 20.3 352 24.7 384 24.3C416 24 448 19 480 16.8C512 14.7 544 15.3 576 18.7C608 22 640 28 672 31C704 34 736 34 768 35.2C800 36.3 832 38.7 864 37C896 35.3 928 29.7 944 26.8L960 24L960 0L944 0C928 0 896 0 864 0C832 0 800 0 768 0C736 0 704 0 672 0C640 0 608 0 576 0C544 0 512 0 480 0C448 0 416 0 384 0C352 0 320 0 288 0C256 0 224 0 192 0C160 0 128 0 96 0C64 0 32 0 16 0L0 0Z" fill="#151515"></path><path d="M0 129L16 120.7C32 112.3 64 95.7 96 92.3C128 89 160 99 192 101.5C224 104 256 99 288 101C320 103 352 112 384 109C416 106 448 91 480 85.7C512 80.3 544 84.7 576 91.3C608 98 640 107 672 104C704 101 736 86 768 79C800 72 832 73 864 70.2C896 67.3 928 60.7 944 57.3L960 54L960 22L944 24.8C928 27.7 896 33.3 864 35C832 36.7 800 34.3 768 33.2C736 32 704 32 672 29C640 26 608 20 576 16.7C544 13.3 512 12.7 480 14.8C448 17 416 22 384 22.3C352 22.7 320 18.3 288 18.3C256 18.3 224 22.7 192 24C160 25.3 128 23.7 96 22.8C64 22 32 22 16 22L0 22Z" fill="#3d3232"></path><path d="M0 169L16 167.7C32 166.3 64 163.7 96 160.7C128 157.7 160 154.3 192 148.5C224 142.7 256 134.3 288 135.2C320 136 352 146 384 150.7C416 155.3 448 154.7 480 151.8C512 149 544 144 576 146C608 148 640 157 672 162.3C704 167.7 736 169.3 768 170.2C800 171 832 171 864 167.3C896 163.7 928 156.3 944 152.7L960 149L960 52L944 55.3C928 58.7 896 65.3 864 68.2C832 71 800 70 768 77C736 84 704 99 672 102C640 105 608 96 576 89.3C544 82.7 512 78.3 480 83.7C448 89 416 104 384 107C352 110 320 101 288 99C256 97 224 102 192 99.5C160 97 128 87 96 90.3C64 93.7 32 110.3 16 118.7L0 127Z" fill="#695151"></path><path d="M0 216L16 213.2C32 210.3 64 204.7 96 199.3C128 194 160 189 192 181.8C224 174.7 256 165.3 288 168.2C320 171 352 186 384 191.8C416 197.7 448 194.3 480 187.7C512 181 544 171 576 171.8C608 172.7 640 184.3 672 192.7C704 201 736 206 768 208.5C800 211 832 211 864 206.8C896 202.7 928 194.3 944 190.2L960 186L960 147L944 150.7C928 154.3 896 161.7 864 165.3C832 169 800 169 768 168.2C736 167.3 704 165.7 672 160.3C640 155 608 146 576 144C544 142 512 147 480 149.8C448 152.7 416 153.3 384 148.7C352 144 320 134 288 133.2C256 132.3 224 140.7 192 146.5C160 152.3 128 155.7 96 158.7C64 161.7 32 164.3 16 165.7L0 167Z" fill="#987373"></path><path d="M0 239L16 235.7C32 232.3 64 225.7 96 222.7C128 219.7 160 220.3 192 219.8C224 219.3 256 217.7 288 217.3C320 217 352 218 384 218C416 218 448 217 480 218.2C512 219.3 544 222.7 576 223.2C608 223.7 640 221.3 672 222.2C704 223 736 227 768 230.3C800 233.7 832 236.3 864 234.3C896 232.3 928 225.7 944 222.3L960 219L960 184L944 188.2C928 192.3 896 200.7 864 204.8C832 209 800 209 768 206.5C736 204 704 199 672 190.7C640 182.3 608 170.7 576 169.8C544 169 512 179 480 185.7C448 192.3 416 195.7 384 189.8C352 184 320 169 288 166.2C256 163.3 224 172.7 192 179.8C160 187 128 192 96 197.3C64 202.7 32 208.3 16 211.2L0 214Z" fill="#ca9797"></path><path d="M0 251L16 251C32 251 64 251 96 251C128 251 160 251 192 251C224 251 256 251 288 251C320 251 352 251 384 251C416 251 448 251 480 251C512 251 544 251 576 251C608 251 640 251 672 251C704 251 736 251 768 251C800 251 832 251 864 251C896 251 928 251 944 251L960 251L960 217L944 220.3C928 223.7 896 230.3 864 232.3C832 234.3 800 231.7 768 228.3C736 225 704 221 672 220.2C640 219.3 608 221.7 576 221.2C544 220.7 512 217.3 480 216.2C448 215 416 216 384 216C352 216 320 215 288 215.3C256 215.7 224 217.3 192 217.8C160 218.3 128 217.7 96 220.7C64 223.7 32 230.3 16 233.7L0 237Z" fill="#ffbdbd"></path></svg>