<svg id="visual" viewBox="0 0 960 300" width="960" height="300" xmlns="http://www.w3.org/2000/svg" xmlns:xlink="http://www.w3.org/1999/xlink" version="1.1"><path d="M0 34L16 34C32 34 64 34 96 35.5C128 37 160 40 192 41.5C224 43 256 43 288 42.5C320 42 352 41 384 39.5C416 38 448 36 480 32C512 28 544 22 576 22.5C608 23 640 30 672 31.5C704 33 736 29 768 27.5C800 26 832 27 864 29.5C896 32 928 36 944 38L960 40L960 0L944 0C928 0 896 0 864 0C832 0 800 0 768 0C736 0 704 0 672 0C640 0 608 0 576 0C544 0 512 0 480 0C448 0 416 0 384 0C352 0 320 0 288 0C256 0 224 0 192 0C160 0 128 0 96 0C64 0 32 0 16 0L0 0Z" fill="#151515"></path><path d="M0 73L16 72.5C32 72 64 71 96 74C128 77 160 84 192 86C224 88 256 85 288 80.5C320 76 352 70 384 71C416 72 448 80 480 82.5C512 85 544 82 576 76.5C608 71 640 63 672 61.5C704 60 736 65 768 67.5C800 70 832 70 864 68.5C896 67 928 64 944 62.5L960 61L960 38L944 36C928 34 896 30 864 27.5C832 25 800 24 768 25.5C736 27 704 31 672 29.5C640 28 608 21 576 20.5C544 20 512 26 480 30C448 34 416 36 384 37.5C352 39 320 40 288 40.5C256 41 224 41 192 39.5C160 38 128 35 96 33.5C64 32 32 32 16 32L0 32Z" fill="#3d3232"></path><path d="M0 115L16 114C32 113 64 111 96 110C128 109 160 109 192 108.5C224 108 256 107 288 106.5C320 106 352 106 384 108.5C416 111 448 116 480 114.5C512 113 544 105 576 98C608 91 640 85 672 88C704 91 736 103 768 106.5C800 110 832 105 864 102C896 99 928 98 944 97.5L960 97L960 59L944 60.5C928 62 896 65 864 66.5C832 68 800 68 768 65.5C736 63 704 58 672 59.5C640 61 608 69 576 74.5C544 80 512 83 480 80.5C448 78 416 70 384 69C352 68 320 74 288 78.5C256 83 224 86 192 84C160 82 128 75 96 72C64 69 32 70 16 70.5L0 71Z" fill="#695151"></path><path d="M0 172L16 173C32 174 64 176 96 171.5C128 167 160 156 192 154.5C224 153 256 161 288 161.5C320 162 352 155 384 154C416 153 448 158 480 157.5C512 157 544 151 576 144C608 137 640 129 672 127.5C704 126 736 131 768 138C800 145 832 154 864 158.5C896 163 928 163 944 163L960 163L960 95L944 95.5C928 96 896 97 864 100C832 103 800 108 768 104.5C736 101 704 89 672 86C640 83 608 89 576 96C544 103 512 111 480 112.5C448 114 416 109 384 106.5C352 104 320 104 288 104.5C256 105 224 106 192 106.5C160 107 128 107 96 108C64 109 32 111 16 112L0 113Z" fill="#987373"></path><path d="M0 259L16 253C32 247 64 235 96 234.5C128 234 160 245 192 245C224 245 256 234 288 229.5C320 225 352 227 384 233C416 239 448 249 480 243.5C512 238 544 217 576 209C608 201 640 206 672 213C704 220 736 229 768 232C800 235 832 232 864 230C896 228 928 227 944 226.5L960 226L960 161L944 161C928 161 896 161 864 156.5C832 152 800 143 768 136C736 129 704 124 672 125.5C640 127 608 135 576 142C544 149 512 155 480 155.5C448 156 416 151 384 152C352 153 320 160 288 159.5C256 159 224 151 192 152.5C160 154 128 165 96 169.5C64 174 32 172 16 171L0 170Z" fill="#ca9797"></path><path d="M0 301L16 301C32 301 64 301 96 301C128 301 160 301 192 301C224 301 256 301 288 301C320 301 352 301 384 301C416 301 448 301 480 301C512 301 544 301 576 301C608 301 640 301 672 301C704 301 736 301 768 301C800 301 832 301 864 301C896 301 928 301 944 301L960 301L960 224L944 224.5C928 225 896 226 864 228C832 230 800 233 768 230C736 227 704 218 672 211C640 204 608 199 576 207C544 215 512 236 480 241.5C448 247 416 237 384 231C352 225 320 223 288 227.5C256 232 224 243 192 243C160 243 128 232 96 232.5C64 233 32 245 16 251L0 257Z" fill="#ffbdbd"></path></svg>